HIERARCHY
ROOT Hips
{
	OFFSET 0.000000 0.000000 0.000000 
	CHANNELS 6 Xposition Yposition Zposition Zrotation Yrotation Xrotation
	JOINT LeftUpLeg
	{
		OFFSET 1.363060 -1.794630 0.839290 
		CHANNELS 3 Zrotation Yrotation Xrotation
		JOINT LeftLeg
		{
			OFFSET 2.448110 -6.726130 0.000000 
			CHANNELS 3 Zrotation Yrotation Xrotation
			JOINT LeftFoot
			{
				OFFSET 2.562200 -7.039590 0.000000 
				CHANNELS 3 Zrotation Yrotation Xrotation
				JOINT LeftToeBase
				{
					OFFSET 0.157640 -0.433110 2.322550 
					CHANNELS 3 Zrotation Yrotation Xrotation
					End Site
					{
						OFFSET 0.000000 0.000000 0.000000 
					}
				}
			}
		}
	}
	JOINT RightUpLeg
	{
		OFFSET -1.305520 -1.794630 0.839290 
		CHANNELS 3 Zrotation Yrotation Xrotation
		JOINT RightLeg
		{
			OFFSET -2.542530 -6.985550 0.000000 
			CHANNELS 3 Zrotation Yrotation Xrotation
			JOINT RightFoot
			{
				OFFSET -2.568260 -7.056230 0.000000 
				CHANNELS 3 Zrotation Yrotation Xrotation
				JOINT RightToeBase
				{
					OFFSET -0.164730 -0.452590 2.363150 
					CHANNELS 3 Zrotation Yrotation Xrotation
					End Site
					{
						OFFSET 0.000000 0.000000 0.000000 
					}
				}
			}
		}
	}
	JOINT Spine
	{
		OFFSET 0.028270 2.035590 -0.193380 
		CHANNELS 3 Zrotation Yrotation Xrotation
		JOINT Spine1
		{
			OFFSET 0.056720 2.048850 -0.042750 
			CHANNELS 3 Zrotation Yrotation Xrotation
			JOINT Neck1
			{
				OFFSET -0.054170 1.746240 0.172020 
				CHANNELS 3 Zrotation Yrotation Xrotation
				JOINT Head
				{
					OFFSET 0.104070 1.761360 -0.123970 
					CHANNELS 3 Zrotation Yrotation Xrotation
					End Site
					{
						OFFSET 0.000000 0.000000 0.000000 
					}
				}
			}
			JOINT LeftArm
			{
				OFFSET 3.362410 1.200890 -0.311210 
				CHANNELS 3 Zrotation Yrotation Xrotation
				JOINT LeftForeArm
				{
					OFFSET 4.983000 -0.000000 -0.000000 
					CHANNELS 3 Zrotation Yrotation Xrotation
					JOINT LeftHand
					{
						OFFSET 3.483560 -0.000000 -0.000000 
						CHANNELS 3 Zrotation Yrotation Xrotation
						JOINT LeftHandIndex1
						{
							OFFSET 0.715260 -0.000000 -0.000000 
							CHANNELS 3 Zrotation Yrotation Xrotation
							End Site
							{
								OFFSET 0.000000 0.000000 0.000000 
							}
						}
					}
				}
			}
			JOINT RightArm
			{
				OFFSET -3.136600 1.374050 -0.404650 
				CHANNELS 3 Zrotation Yrotation Xrotation
				JOINT RightForeArm
				{
					OFFSET -5.241900 -0.000000 -0.000000 
					CHANNELS 3 Zrotation Yrotation Xrotation
					JOINT RightHand
					{
						OFFSET -3.444170 -0.000000 -0.000000 
						CHANNELS 3 Zrotation Yrotation Xrotation
						JOINT RightHandIndex1
						{
							OFFSET -0.622530 -0.000000 -0.000000 
							CHANNELS 3 Zrotation Yrotation Xrotation
							End Site
							{
								OFFSET 0.000000 0.000000 0.000000 
							}
						}
					}
				}
			}
		}
	}
}
MOTION
Frames: 15
Frame Time: 0.041667
-28.893058 17.462956 1.273674 57.567872 87.133574 51.075722 -20.284316 6.801905 13.840099 -1.786419 0.370232 0.731630 -0.529046 7.695640 -9.462659 0.152700 -2.517700 -6.938600 15.306070 -15.883506 20.542889 -0.372735 -2.553876 1.988871 -0.505630 -0.319278 -15.995972 -0.672900 -5.245300 14.609600 -0.975670 2.485782 -2.637848 1.319685 1.078091 1.709106 2.871018 2.072956 9.336016 -1.386700 1.280600 11.287400 -3.419744 0.019906 -0.010093 -1.474502 -0.334596 -0.000075 -0.062990 -0.018000 -0.000037 0.000000 0.000000 0.000000 3.513228 -1.280555 0.003848 -0.295454 -0.084352 0.000063 -0.040923 0.020388 0.000031 0.000000 0.000000 0.000000 
-28.898177 17.463571 1.273367 57.558947 87.341792 51.077949 -20.089565 6.664285 13.831982 -1.780219 0.395707 0.827663 -0.486039 7.348759 -9.544050 0.066800 -1.667800 -4.588500 15.476001 -16.109582 20.340213 -0.369728 -2.616385 2.123524 -0.513089 -0.176391 -16.039061 -0.654900 -5.176100 14.411400 -0.892092 2.336626 -2.674641 1.623389 0.997381 1.511914 2.817905 2.282332 9.307847 -1.377100 1.355300 11.226400 -3.386478 0.030167 -0.010235 -1.486686 -0.336975 -0.000076 -0.064182 -0.018248 -0.000038 0.000000 0.000000 0.000000 3.557329 -1.282634 0.004054 -0.310148 -0.087705 0.000065 -0.041390 0.020485 0.000033 0.000000 0.000000 0.000000 
-28.900941 17.464902 1.273674 56.544011 87.505523 50.110638 -19.889208 6.582237 13.794618 -1.780535 0.381479 0.820906 -0.489638 7.379619 -9.627719 0.062100 -1.608100 -4.423800 15.766702 -16.053723 20.224975 -0.368234 -2.633930 2.147185 -0.512814 -0.277613 -16.124129 -0.654900 -5.176300 14.412000 -0.848994 2.268435 -2.693393 1.730332 0.954854 1.445257 2.802453 2.345803 9.316171 -1.378800 1.380700 11.224800 -3.372961 0.032276 -0.010294 -1.491518 -0.338065 -0.000077 -0.064657 -0.018346 -0.000038 0.000000 0.000000 0.000000 3.574713 -1.283389 0.004131 -0.315868 -0.088912 0.000066 -0.041565 0.020511 0.000033 0.000000 0.000000 0.000000 
-28.901556 17.467154 1.273982 57.320911 87.434625 50.885050 -19.949157 6.689899 13.725749 -1.778371 0.390531 0.825101 -0.491245 7.384008 -9.564477 0.092200 -1.958800 -5.391900 15.670238 -16.048463 20.248824 -0.368664 -2.626043 2.139817 -0.512419 -0.295395 -16.120144 -0.641300 -5.123300 14.260500 -0.865185 2.281965 -2.692788 1.713055 0.966555 1.455411 2.839189 2.322874 9.353367 -1.358500 1.376300 11.262100 -3.376051 0.032649 -0.010289 -1.490233 -0.337804 -0.000077 -0.064536 -0.018319 -0.000038 0.000000 0.000000 0.000000 3.570438 -1.280978 0.004119 -0.314968 -0.088710 0.000066 -0.041524 0.020496 0.000033 0.000000 0.000000 0.000000 
-28.901351 17.467154 1.275108 57.767957 87.269828 51.325487 -19.997497 6.751066 13.686408 -1.776107 0.402515 0.815180 -0.485468 7.342829 -9.536600 0.093200 -1.969400 -5.421100 15.590422 -16.025147 20.312915 -0.370680 -2.607433 2.130610 -0.513935 -0.265811 -16.094478 -0.649900 -5.156700 14.356100 -0.537836 2.202093 -2.502518 0.972793 0.917756 0.862971 3.503933 2.193303 9.464147 -1.319200 1.374900 11.293900 -93.195199 0.477176 37.777500 11.264217 -19.524255 -2.162740 -0.231802 0.675754 13.539035 -7.125000 0.000000 0.000000 5.134638 -0.909355 0.013262 -1.002841 -0.258771 0.000180 -0.060364 0.020417 0.000090 0.000000 0.000000 0.000000 
-28.901760 17.465618 1.276439 55.607636 87.351717 49.227273 -19.829116 6.469340 13.804267 -1.786421 0.361712 0.713952 -0.523080 7.643254 -9.610334 0.087500 -1.907800 -5.250900 15.973808 -15.898135 20.279303 -0.371240 -2.596335 2.106339 -0.513000 -0.337898 -16.129974 -0.696100 -5.333300 14.861700 0.317562 2.357021 -2.668099 -1.419662 1.083156 1.046571 4.661781 1.955334 9.353913 -1.279400 1.382400 11.300600 -92.186637 0.408195 36.881327 10.426253 -19.372916 -2.023124 -0.131877 0.733186 15.422317 -7.125000 0.000000 0.000000 90.922483 -5.934229 34.817826 -18.718527 33.199965 -4.959778 0.647600 -2.889297 2.359297 7.125000 0.000000 0.000000 
-28.901658 17.464390 1.275517 55.256095 87.395846 48.892741 -19.987309 5.980345 14.084604 -1.813766 0.275727 0.494713 -0.586695 8.185411 -9.740340 0.105900 -2.098300 -5.777500 16.026547 -15.916631 20.238138 -0.371271 -2.601716 2.112540 -0.511896 -0.334402 -16.115538 -0.706700 -5.372900 14.975300 0.327978 2.337019 -2.671890 -1.397733 1.069633 1.049491 4.657618 1.968812 9.364407 -1.272900 1.385400 11.307300 -92.247063 0.495390 37.831402 10.962199 -20.141624 -2.193718 -0.157510 0.655585 13.586849 -7.125000 0.000000 0.000000 90.882434 -5.957842 34.845426 -18.712920 33.189301 -4.959435 0.630675 -2.885970 2.629610 7.125000 0.000000 0.000000 
-28.899406 17.462854 1.272241 57.357723 87.178513 51.011968 -20.334311 5.930498 14.111342 -1.822283 0.261553 0.403600 -0.591670 8.258513 -9.743600 0.113900 -2.175800 -5.991700 15.588884 -16.073338 20.261874 -0.374438 -2.591897 2.122263 -0.515777 -0.166435 -16.030769 -0.712400 -5.394000 15.035700 0.312672 2.328297 -2.678878 -1.320282 1.076731 1.045622 4.631463 1.986276 9.393816 -1.286000 1.390800 11.325700 -92.287841 0.554860 38.135919 11.156379 -20.422345 -2.257288 -0.138489 0.621765 12.974762 -7.125000 0.000000 0.000000 90.816241 -6.009406 34.944482 -18.738625 33.203500 -4.969573 0.623664 -2.883801 2.670413 7.125000 0.000000 0.000000 
-28.897870 17.462240 1.271012 57.260699 87.161025 50.921494 -20.279520 6.149775 14.020477 -1.810203 0.278204 0.445490 -0.567326 8.036773 -9.619712 0.106800 -2.107200 -5.802000 15.510310 -16.166082 20.249476 -0.375788 -2.591839 2.116404 -0.516531 -0.048770 -15.964058 -0.696200 -5.333700 14.862900 0.297111 2.354632 -2.679664 -1.396367 1.092856 1.048772 4.614548 1.967133 9.410705 -1.305300 1.386100 11.336100 -92.226776 0.541885 38.227086 11.127582 -20.375829 -2.246592 -0.159608 0.626551 12.898882 -7.125000 0.000000 0.000000 90.867125 -6.037019 34.927126 -18.763844 33.244404 -4.985429 0.620552 -2.891261 2.616878 7.125000 0.000000 0.000000 
-28.891112 17.460397 1.267838 59.300915 86.945024 52.887636 -20.626621 6.217962 14.127197 -1.813644 0.271644 0.377723 -0.565148 8.050317 -9.582744 0.112100 -2.158800 -5.944700 14.927437 -16.552287 20.347001 -0.374876 -2.590449 2.131556 -0.518514 0.253360 -15.774387 -0.649000 -5.153300 14.346200 0.254280 2.408075 -2.667325 -1.474392 1.133720 1.086667 4.601688 1.930816 9.434973 -1.330800 1.377000 11.358100 -92.130475 0.529407 38.062629 10.921075 -20.079233 -2.178381 -0.146770 0.656724 13.479576 -7.125000 0.000000 0.000000 90.966804 -6.044062 34.804269 -18.770876 33.272618 -4.992966 0.622611 -2.898195 2.555828 7.125000 0.000000 0.000000 
-28.876266 17.455482 1.258726 65.632672 86.116754 59.057725 -21.812084 6.383763 14.256910 -1.828322 0.298120 0.276155 -0.549619 8.050896 -9.606901 0.149800 -2.494000 -6.873000 13.184039 -17.268340 20.658372 -0.375482 -2.567551 2.185435 -0.527034 0.930494 -15.409074 -0.679700 -5.271500 14.684700 0.168387 2.379502 -2.716291 -1.380354 1.170209 0.847322 4.572556 1.972277 9.466040 -1.366700 1.404700 11.355700 -92.114420 0.826379 37.010355 10.429008 -19.374898 -2.023254 -0.169933 0.742764 15.409531 -7.125000 0.000000 0.000000 90.985169 -6.367264 34.842329 -18.845104 33.314280 -5.009379 0.627744 -2.888538 2.552272 7.125000 0.000000 0.000000 
-28.867973 17.453230 1.252788 69.495252 85.425397 62.838648 -22.722863 6.576591 14.247230 -1.834737 0.342175 0.263385 -0.527058 7.942866 -9.550527 0.173000 -2.679600 -7.387900 11.840348 -17.753540 20.830701 -0.374454 -2.570026 2.279742 -0.532966 1.439184 -15.171309 -0.683500 -5.286000 14.726200 0.099635 2.371951 -2.713238 -1.273716 1.189618 0.838785 4.592371 1.980044 9.411535 -1.358200 1.406400 11.301200 -92.109755 0.900996 37.049453 10.472583 -19.445790 -2.037563 -0.133642 0.725664 15.209082 -7.125000 0.000000 0.000000 90.999806 -6.433125 34.826342 -18.845916 33.306009 -5.006030 0.622582 -2.883958 2.587045 7.125000 0.000000 0.000000 
-28.866642 17.453537 1.252378 70.060132 85.275051 63.397899 -22.758579 6.986040 13.974660 -1.814625 0.434341 0.478136 -0.480095 7.504292 -9.312230 0.126600 -2.294000 -6.318900 11.526732 -17.922106 20.828716 -0.373815 -2.575540 2.305171 -0.535157 1.592431 -15.123168 -0.643300 -5.131100 14.282900 0.082015 2.386392 -2.715503 -1.247489 1.200555 0.825964 4.650629 1.938475 9.401431 -1.316000 1.389000 11.289000 -92.094243 0.925686 37.076546 10.452729 -19.415080 -2.031263 -0.160609 0.738449 15.298112 -7.125000 0.000000 0.000000 91.002844 -6.440080 34.807814 -18.816651 33.275616 -4.996103 0.623129 -2.886110 2.586857 7.125000 0.000000 0.000000 
-28.865004 17.452923 1.252481 69.476609 85.376397 62.802127 -22.497260 7.345603 13.800071 -1.792877 0.485148 0.629580 -0.444659 7.148639 -9.139930 0.170700 -2.661600 -7.338000 11.654732 -17.913991 20.851697 -0.375260 -2.564126 2.256569 -0.536038 1.651689 -15.113310 -0.700900 -5.351400 14.913600 0.067521 2.394979 -2.710451 -1.404712 1.205253 0.855958 4.659516 1.893280 9.419317 -1.318200 1.375600 11.298900 -91.987340 0.918796 37.206937 10.502966 -19.477884 -2.045363 -0.159539 0.721689 15.031509 -7.125000 0.000000 0.000000 91.094698 -6.431053 34.784519 -18.792436 33.274668 -4.987050 0.624360 -2.889883 2.626895 7.125000 0.000000 0.000000 
-28.864185 17.453230 1.252378 69.427094 85.399395 62.729605 -22.596109 7.059369 14.071864 -1.809393 0.390376 0.385387 -0.482650 7.510578 -9.274333 0.189600 -2.804300 -7.734400 11.693328 -17.891407 20.893026 -0.376621 -2.560290 2.246791 -0.536566 1.712195 -15.087542 -0.738300 -5.489400 15.309700 0.092150 2.405723 -2.711575 -1.271198 1.206496 0.830789 4.641009 1.907456 9.435822 -1.314300 1.373200 11.308900 -92.100465 0.924556 37.189154 10.496181 -19.474043 -2.043364 -0.146270 0.717704 15.055393 -7.125000 0.000000 0.000000 90.995261 -6.458175 34.784126 -18.807389 33.262254 -4.984505 0.620905 -2.875923 2.605454 7.125000 0.000000 0.000000 
